# xmcd CD database file
#
# Track frame offsets:
#	150
#	16099
#	33901
#	47541
#	66606
#	81919
#	108793
#	125965
#	152522
#	167976
#	185524
#	199910
#
# Disc length: 2862 seconds
#
# Revision: 5
# Processed by: cddbd v1.5.2PL0 Copyright (c) Steve Scherf et al.
# Submitted via: CDex 1.51
#
DISCID=a00b2c0c
DTITLE=Shemekia Copeland - The Soul Truth
DYEAR=2005
DGENRE=Blues
TTITLE0=Breakin' Out
TTITLE1=Who Stole My Radio?
TTITLE2=Poor, Poor Excuse
TTITLE3=All About You
TTITLE4=Better Not Touch
TTITLE5=Strong Enough
TTITLE6=You Cant Have That
TTITLE7=Uptown Line
TTITLE8=Givin' Up You
TTITLE9=Used
TTITLE10=Honey Do That Voo-Doo
TTITLE11=Something Heavy
EXTD=CD is dedicated to Shemekia's grandmother, Jessie Roe Baker\nAlligator Records 2005, Chicago, Illinois YEAR: 2005
EXTT0=
EXTT1=
EXTT2=
EXTT3=
EXTT4=
EXTT5=
EXTT6=
EXTT7=
EXTT8=
EXTT9=
EXTT10=
EXTT11=
PLAYORDER=
